<?xml version="1.0" encoding="UTF-8" standalone="no"?>
<!-- Created with Inkscape (http://www.inkscape.org/) -->

<svg
   width="160"
   height="160"
   viewBox="0 0 160 160"
   version="1.1"
   id="svg5"
   xml:space="preserve"
   inkscape:version="1.2.2 (b0a8486541, 2022-12-01)"
   sodipodi:docname="icon.svg"
   inkscape:export-filename="icon_48x48.png"
   inkscape:export-xdpi="28.799999"
   inkscape:export-ydpi="28.799999"
   xmlns:inkscape="http://www.inkscape.org/namespaces/inkscape"
   xmlns:sodipodi="http://sodipodi.sourceforge.net/DTD/sodipodi-0.dtd"
   xmlns:xlink="http://www.w3.org/1999/xlink"
   xmlns="http://www.w3.org/2000/svg"
   xmlns:svg="http://www.w3.org/2000/svg"><sodipodi:namedview
     id="namedview7"
     pagecolor="#ffffff"
     bordercolor="#666666"
     borderopacity="1.0"
     inkscape:showpageshadow="2"
     inkscape:pageopacity="0.0"
     inkscape:pagecheckerboard="0"
     inkscape:deskcolor="#d1d1d1"
     inkscape:document-units="px"
     showgrid="false"
     inkscape:zoom="11.9625"
     inkscape:cx="249.98955"
     inkscape:cy="80"
     inkscape:window-width="3838"
     inkscape:window-height="2123"
     inkscape:window-x="0"
     inkscape:window-y="35"
     inkscape:window-maximized="1"
     inkscape:current-layer="layer1"><inkscape:grid
       type="xygrid"
       id="grid179"
       originx="0"
       originy="0" /><inkscape:page
       x="0"
       y="0"
       width="160"
       height="160"
       id="page1432"
       inkscape:export-filename="./icon_48x48.png"
       inkscape:export-xdpi="28.799999"
       inkscape:export-ydpi="28.799999" /><inkscape:page
       x="170"
       y="0"
       width="160"
       height="160"
       id="page1434"
       inkscape:export-filename="./enable_32x32"
       inkscape:export-xdpi="19.200001"
       inkscape:export-ydpi="19.200001" /><inkscape:page
       x="170"
       y="170"
       width="160"
       height="160"
       id="page1542"
       inkscape:export-filename="./disabled_32x32.png"
       inkscape:export-xdpi="19.200001"
       inkscape:export-ydpi="19.200001" /></sodipodi:namedview><defs
     id="defs2"><linearGradient
       inkscape:collect="always"
       id="linearGradient1047"><stop
         style="stop-color:#55dee9;stop-opacity:1;"
         offset="0"
         id="stop1043" /><stop
         style="stop-color:#0092a1;stop-opacity:1;"
         offset="1"
         id="stop1045" /></linearGradient><linearGradient
       inkscape:collect="always"
       id="linearGradient937"><stop
         style="stop-color:#ffbd20;stop-opacity:1;"
         offset="0"
         id="stop933" /><stop
         style="stop-color:#ff731e;stop-opacity:1;"
         offset="1"
         id="stop935" /></linearGradient><linearGradient
       inkscape:collect="always"
       xlink:href="#linearGradient937"
       id="linearGradient1055"
       gradientUnits="userSpaceOnUse"
       x1="95.699768"
       y1="71.128548"
       x2="103.61745"
       y2="162.30122"
       gradientTransform="translate(0,-40)" /><linearGradient
       inkscape:collect="always"
       xlink:href="#linearGradient1047"
       id="linearGradient1057"
       gradientUnits="userSpaceOnUse"
       x1="45.310028"
       y1="19.713861"
       x2="76.146973"
       y2="99.468475" /><filter
       style="color-interpolation-filters:sRGB;"
       inkscape:label="Blur"
       id="filter1061"
       x="-0.057274935"
       y="-0.041648591"
       width="1.1145499"
       height="1.0832972"><feGaussianBlur
         stdDeviation="2 2"
         result="blur"
         id="feGaussianBlur1059" /></filter><filter
       style="color-interpolation-filters:sRGB;"
       inkscape:label="Blur"
       id="filter1065"
       x="-0.051849849"
       y="-0.041648591"
       width="1.1036997"
       height="1.0832972"><feGaussianBlur
         stdDeviation="2 2"
         result="blur"
         id="feGaussianBlur1063" /></filter><filter
       style="color-interpolation-filters:sRGB;"
       inkscape:label="Blur"
       id="filter1089"
       x="-0.020434088"
       y="-0.48000002"
       width="1.0408682"
       height="1.96"><feGaussianBlur
         stdDeviation="0.6 0.6"
         result="blur"
         id="feGaussianBlur1087" /></filter><filter
       style="color-interpolation-filters:sRGB;"
       inkscape:label="Blur"
       id="filter1134"
       x="-0.017028406"
       y="-0.4"
       width="1.0340568"
       height="1.8"><feGaussianBlur
         stdDeviation="0.5 0.5"
         result="blur"
         id="feGaussianBlur1132" /></filter><filter
       style="color-interpolation-filters:sRGB;"
       inkscape:label="Brilliance"
       id="filter1169"
       x="0"
       y="0"
       width="1"
       height="1"><feColorMatrix
         values="2 -0.5 -0.5 0 0 -0.5 2 -0.5 0 0 -0.5 -0.5 2 0 0 0 0 0 1 0 "
         id="feColorMatrix1167" /></filter><filter
       style="color-interpolation-filters:sRGB;"
       inkscape:label="Brilliance"
       id="filter1173"
       x="0"
       y="0"
       width="1"
       height="1"><feColorMatrix
         values="2 -0.5 -0.5 0 0 -0.5 2 -0.5 0 0 -0.5 -0.5 2 0 0 0 0 0 1 0 "
         id="feColorMatrix1171" /></filter><filter
       style="color-interpolation-filters:sRGB;"
       inkscape:label="Greyscale"
       id="filter1596"
       x="-0.035659752"
       y="-0.041648593"
       width="1.0713195"
       height="1.0832973"><feColorMatrix
         values="0.21 0.72 0.072 -0.1 0 0.21 0.72 0.072 -0.1 0 0.21 0.72 0.072 -0.1 0 0 0 0 1 0 "
         id="feColorMatrix1594"
         result="fbSourceGraphic" /><feColorMatrix
         result="fbSourceGraphicAlpha"
         in="fbSourceGraphic"
         values="0 0 0 -1 0 0 0 0 -1 0 0 0 0 -1 0 0 0 0 1 0"
         id="feColorMatrix1598" /><feColorMatrix
         id="feColorMatrix1600"
         values="0.21 0.72 0.072 -0.1 0 0.21 0.72 0.072 -0.1 0 0.21 0.72 0.072 -0.1 0 0 0 0 1 0 "
         in="fbSourceGraphic"
         result="fbSourceGraphic" /><feColorMatrix
         result="fbSourceGraphicAlpha"
         in="fbSourceGraphic"
         values="0 0 0 -1 0 0 0 0 -1 0 0 0 0 -1 0 0 0 0 1 0"
         id="feColorMatrix1602" /><feColorMatrix
         id="feColorMatrix1604"
         values="0.21 0.72 0.072 -0.1 0 0.21 0.72 0.072 -0.1 0 0.21 0.72 0.072 -0.1 0 0 0 0 1 0 "
         in="fbSourceGraphic" /></filter><filter
       style="color-interpolation-filters:sRGB;"
       inkscape:label="Greyscale"
       id="filter1608"
       x="-0.035659752"
       y="-0.041648593"
       width="1.0713195"
       height="1.0832973"><feColorMatrix
         values="0.21 0.72 0.072 -0.1 0 0.21 0.72 0.072 -0.1 0 0.21 0.72 0.072 -0.1 0 0 0 0 1 0 "
         id="feColorMatrix1606" /></filter></defs><g
     inkscape:label="Layer 1"
     inkscape:groupmode="layer"
     id="layer1"><ellipse
       style="opacity:0.67;fill:#666666;fill-opacity:0.74;stroke:none;stroke-width:2.15908;stroke-linejoin:round;stroke-dasharray:none;filter:url(#filter1134)"
       id="ellipse3246"
       cx="80"
       cy="139.92554"
       rx="35.235241"
       ry="1.5"
       transform="matrix(0.91790729,0,0,1.1284756,6.620135,-12.220083)" /><g
       id="g1548"
       transform="translate(-1.5050491)"><path
         id="path3264"
         style="fill:#000000;fill-opacity:0.243011;stroke:none;filter:url(#filter1065)"
         inkscape:transform-center-y="20.155644"
         d="m 34.986687,27.919666 c 28.040752,38.594194 25.040752,36.594194 56.040752,82.594194 1,1 2,3 4,0 4,-6 7.000001,-4 11.000001,-11 1.43578,-2.50579 1.28332,-3.8341 0,-6 C 80.027439,58.513862 80.027439,58.513862 60.027439,30.513862 c -5,-6 -5,-6 -12,-6 h -11 c -2.126812,0 -3.289927,1.242124 -2.040752,3.405804 z m -20,0 C 55.027439,96.51386 55.027439,96.51386 79.027439,137.51386 c 2,3 3,3 5,0 5,-9 5,-9 9,-16 1,-2 1.283318,-4.8341 0,-7 -16,-21.99998 -51,-65.999998 -66,-86.999998 -2,-3 -2,-3 -6,-3 h -4 c -2.126812,0 -3.289927,1.242124 -2.040752,3.405804 z" /><path
         id="path1051"
         style="fill:url(#linearGradient1057);fill-opacity:1;stroke:none"
         inkscape:transform-center-y="20.155644"
         d="m 34.986687,27.919666 c 28.040752,38.594194 25.040752,36.594194 56.040752,82.594194 1,1 2,3 4,0 4,-6 7.000001,-4 11.000001,-11 1.43578,-2.50579 1.28332,-3.8341 0,-6 C 80.027439,58.513862 80.027439,58.513862 60.027439,30.513862 c -5,-6 -5,-6 -12,-6 h -11 c -2.126812,0 -3.289927,1.242124 -2.040752,3.405804 z m -20,0 C 55.027439,96.51386 55.027439,96.51386 79.027439,137.51386 c 2,3 3,3 5,0 5,-9 5,-9 9,-16 1,-2 1.283318,-4.8341 0,-7 -16,-21.99998 -51,-65.999998 -66,-86.999998 -2,-3 -2,-3 -6,-3 h -4 c -2.126812,0 -3.289927,1.242124 -2.040752,3.405804 z" /><path
         id="path3266"
         style="fill:#000000;fill-opacity:0.364486;stroke:none;filter:url(#filter1061)"
         d="M 148.56465,27.919666 C 106.53096,99.51386 108.02744,96.51386 84.02744,137.51386 c -2,3 -3,3 -5,0 -4.51286,-7.70953 -9,-15 -13,-22 -1,-2 -1.0141,-4.69574 0,-7 22,-40 22,-40 42,-80.999998 2,-3 2,-3 6,-3 h 32.49646 c 2.12681,0 3.28992,1.242124 2.04075,3.405804 z"
         sodipodi:nodetypes="ccccccccc"
         inkscape:transform-center-y="20.155646" /><path
         id="path1053"
         style="fill:url(#linearGradient1055);fill-opacity:1;stroke:none"
         d="M 148.56465,27.919666 C 106.53096,99.51386 108.02744,96.51386 84.02744,137.51386 c -2,3 -3,3 -5,0 -4.51286,-7.70953 -9,-15 -13,-22 -1,-2 -1.0141,-4.69574 0,-7 22,-40 22,-40 42,-80.999998 2,-3 2,-3 6,-3 h 32.49646 c 2.12681,0 3.28992,1.242124 2.04075,3.405804 z"
         sodipodi:nodetypes="ccccccccc"
         inkscape:transform-center-y="20.155646" /></g><use
       x="0"
       y="0"
       xlink:href="#g1548"
       id="use1550"
       transform="translate(169.99396,1.4186468)" /><use
       x="0"
       y="0"
       xlink:href="#g1548"
       id="use1552"
       transform="translate(170.00339,171.96026)"
       style="filter:url(#filter1608)" /></g></svg>
